# Blender 4.5.4 LTS
# www.blender.org
mtllib house.mtl
o Cube
v 6.254927 13.254927 -6.254927
v 6.254927 0.745073 -6.254927
v 6.254927 13.254927 6.254927
v 6.254927 0.745073 6.254927
v -6.254927 13.254927 -6.254927
v -6.254927 0.745073 -6.254927
v -6.254927 13.254927 6.254927
v -6.254927 0.745073 6.254927
v -6.254927 0.745073 0.000000
v 6.254927 17.891972 0.000000
v -6.254927 17.891972 0.000000
v 6.254927 0.745073 0.000000
vn -0.0000 0.8033 0.5955
vn -0.0000 -0.0000 1.0000
vn -1.0000 -0.0000 -0.0000
vn -0.0000 -1.0000 -0.0000
vn 1.0000 -0.0000 -0.0000
vn -0.0000 -0.0000 -1.0000
vn -0.0000 0.8033 -0.5955
vt 0.875000 0.625000
vt 0.625000 0.750000
vt 0.625000 0.625000
vt 0.375000 1.000000
vt 0.375000 0.750000
vt 0.375000 0.125000
vt 0.625000 0.250000
vt 0.375000 0.250000
vt 0.375000 0.625000
vt 0.125000 0.750000
vt 0.125000 0.625000
vt 0.375000 0.500000
vt 0.625000 0.500000
vt 0.125000 0.500000
vt 0.625000 0.000000
vt 0.375000 0.000000
vt 0.875000 0.500000
vt 0.875000 0.750000
vt 0.625000 1.000000
vt 0.625000 0.125000
s 0
usemtl Material
f 11/1/1 3/2/1 10/3/1
f 3/2/2 8/4/2 4/5/2
f 9/6/3 5/7/3 6/8/3
f 12/9/4 8/10/4 9/11/4
f 12/9/5 3/2/5 4/5/5
f 5/7/6 2/12/6 6/8/6
f 1/13/5 12/9/5 2/12/5
f 2/12/4 9/11/4 6/14/4
f 7/15/3 9/6/3 8/16/3
f 5/17/7 10/3/7 1/13/7
f 11/1/1 7/18/1 3/2/1
f 3/2/2 7/19/2 8/4/2
f 9/6/3 11/20/3 5/7/3
f 12/9/4 4/5/4 8/10/4
f 12/9/5 10/3/5 3/2/5
f 5/7/6 1/13/6 2/12/6
f 1/13/5 10/3/5 12/9/5
f 2/12/4 12/9/4 9/11/4
f 7/15/3 11/20/3 9/6/3
f 5/17/7 11/1/7 10/3/7
